<svg xmlns="http://www.w3.org/2000/svg" fill="none" viewBox="0 0 404 40">
  <g clip-path="url(#clip0)">
    <rect width="116" height="40" fill="#F7EDF0" rx="4"/>
    <path fill="#000" d="M37.24 31.084c-.504 0-.894-.166-1.169-.497-.275-.331-.413-.796-.413-1.393s.138-1.062.413-1.393c.28-.331.667-.497 1.162-.497.336 0 .611.077.826.231.215.15.369.343.462.581l-.322.161a.917.917 0 00-.357-.462 1.086 1.086 0 00-.609-.161c-.369 0-.653.119-.854.357-.196.233-.294.544-.294.931v.504c0 .387.098.7.294.938.2.233.488.35.861.35.257 0 .471-.058.644-.175.173-.117.306-.28.399-.49l.294.189a1.42 1.42 0 01-.483.595c-.22.154-.504.231-.854.231zM39.631 31v-3.612h.371v.42h.021a.957.957 0 01.245-.357c.112-.098.269-.147.47-.147.205 0 .363.051.475.154a.665.665 0 01.21.413h.014c.066-.163.159-.299.28-.406.122-.107.29-.161.504-.161.28 0 .474.093.581.28.112.182.168.448.168.798V31h-.37v-2.555c0-.294-.043-.502-.127-.623-.08-.121-.207-.182-.385-.182a.58.58 0 00-.427.175c-.116.112-.175.285-.175.518V31h-.37v-2.555c0-.294-.043-.502-.127-.623-.08-.121-.207-.182-.385-.182a.58.58 0 00-.427.175c-.116.112-.175.285-.175.518V31h-.37zM46.748 31c-.164 0-.28-.04-.35-.119a.527.527 0 01-.12-.322v-.126h-.035a1.03 1.03 0 01-.392.469c-.181.121-.429.182-.742.182-.378 0-.676-.091-.895-.273-.215-.187-.322-.448-.322-.784 0-.159.025-.301.076-.427a.808.808 0 01.26-.329 1.32 1.32 0 01.462-.203c.186-.051.415-.077.686-.077h.882v-.441c0-.303-.085-.53-.253-.679-.163-.15-.392-.224-.686-.224-.494 0-.84.198-1.036.595l-.273-.196a1.2 1.2 0 01.47-.525c.224-.145.51-.217.86-.217.411 0 .733.107.966.322.234.21.35.504.35.882v2.142h.54V31h-.448zm-1.575-.252c.154 0 .296-.019.426-.056.131-.037.245-.089.344-.154a.79.79 0 00.23-.252.651.651 0 00.084-.329v-.665h-.881c-.378 0-.651.058-.82.175a.53.53 0 00-.244.462v.182c0 .21.077.369.23.476.16.107.37.161.63.161zM49.916 26.422c-.126 0-.217-.026-.273-.077a.29.29 0 01-.077-.203v-.091c0-.08.026-.145.077-.196.056-.056.147-.084.273-.084.126 0 .215.028.266.084a.254.254 0 01.084.196v.091c0 .08-.028.147-.084.203-.052.051-.14.077-.266.077zm-1.554 4.235h1.358v-2.926h-1.358v-.343h1.757v3.269h1.267V31h-3.024v-.343zM52.335 30.657h1.134v-2.926h-1.134v-.343h1.533v.826h.028c.08-.252.215-.453.406-.602.196-.15.453-.224.77-.224h.623v.392h-.742c-.327 0-.59.098-.79.294-.197.191-.295.45-.295.777v1.806h1.47V31h-3.003v-.343zM58.086 31.049c-.149 0-.254-.03-.315-.091a.322.322 0 01-.09-.238v-.098c0-.093.03-.17.09-.231.061-.065.166-.098.315-.098.15 0 .255.033.315.098.061.06.091.138.091.231v.098c0 .098-.03.177-.09.238-.061.06-.166.091-.316.091zM62.36 31.084a2.31 2.31 0 01-.951-.182 2.115 2.115 0 01-.693-.525l.273-.238c.177.205.375.36.595.462.219.098.48.147.784.147.317 0 .574-.06.77-.182.2-.121.3-.308.3-.56a.525.525 0 00-.062-.273.465.465 0 00-.161-.182.777.777 0 00-.245-.105 1.887 1.887 0 00-.308-.063l-.56-.077a4.85 4.85 0 01-.427-.077 1.488 1.488 0 01-.385-.161.89.89 0 01-.28-.28.86.86 0 01-.105-.448.884.884 0 01.399-.784 1.4 1.4 0 01.44-.189c.173-.042.358-.063.554-.063.336 0 .618.056.847.168.233.107.429.243.588.406l-.266.252a1.612 1.612 0 00-.182-.168.97.97 0 00-.245-.161 1.429 1.429 0 00-.33-.112 1.735 1.735 0 00-.433-.049c-.308 0-.549.056-.721.168-.168.112-.252.28-.252.504 0 .112.018.205.056.28.042.07.098.128.168.175.07.047.151.084.245.112.093.023.193.042.3.056l.568.084c.14.023.28.054.42.091.144.033.273.084.385.154.116.07.21.163.28.28.07.112.105.259.105.441a.97.97 0 01-.413.819c-.126.093-.28.163-.462.21a2.39 2.39 0 01-.595.07zM65.13 27.388h.399v.574h.02c.103-.196.246-.355.428-.476.186-.121.417-.182.693-.182.453 0 .805.163 1.057.49.252.322.378.789.378 1.4 0 .611-.126 1.08-.378 1.407-.252.322-.605.483-1.057.483-.276 0-.507-.06-.693-.182a1.272 1.272 0 01-.427-.476h-.021V32.4h-.4v-5.012zm1.407 3.339c.364 0 .644-.114.84-.343.2-.229.3-.541.3-.938v-.504c0-.397-.1-.71-.3-.938-.196-.229-.476-.343-.84-.343-.136 0-.264.019-.385.056a1.043 1.043 0 00-.322.161.797.797 0 00-.224.259.757.757 0 00-.077.343v1.428c0 .126.026.24.077.343.056.103.13.189.224.259.093.07.2.124.322.161.121.037.25.056.385.056zM71.931 31c-.163 0-.28-.04-.35-.119a.527.527 0 01-.119-.322v-.126h-.035a1.03 1.03 0 01-.392.469c-.182.121-.43.182-.742.182-.378 0-.677-.091-.896-.273-.215-.187-.322-.448-.322-.784 0-.159.026-.301.077-.427a.807.807 0 01.26-.329c.12-.089.274-.156.461-.203.187-.051.415-.077.686-.077h.882v-.441c0-.303-.084-.53-.252-.679-.163-.15-.392-.224-.686-.224-.495 0-.84.198-1.036.595l-.273-.196a1.2 1.2 0 01.47-.525c.223-.145.51-.217.86-.217.41 0 .733.107.966.322.233.21.35.504.35.882v2.142h.54V31h-.449zm-1.575-.252c.154 0 .296-.019.427-.056.13-.037.245-.089.343-.154a.79.79 0 00.231-.252.651.651 0 00.084-.329v-.665h-.882c-.378 0-.65.058-.819.175a.53.53 0 00-.245.462v.182c0 .21.077.369.231.476.159.107.369.161.63.161zM75.015 31.084c-.504 0-.893-.166-1.169-.497-.275-.331-.413-.796-.413-1.393s.138-1.062.413-1.393c.28-.331.668-.497 1.162-.497.336 0 .612.077.826.231.215.15.369.343.462.581l-.322.161a.917.917 0 00-.357-.462 1.087 1.087 0 00-.609-.161c-.368 0-.653.119-.854.357-.196.233-.294.544-.294.931v.504c0 .387.098.7.294.938.201.233.488.35.861.35.257 0 .472-.058.644-.175.173-.117.306-.28.4-.49l.293.189a1.42 1.42 0 01-.483.595c-.219.154-.504.231-.854.231zM79.129 31.084c-.504 0-.901-.163-1.19-.49-.285-.331-.427-.796-.427-1.393 0-.299.037-.565.112-.798a1.68 1.68 0 01.315-.595c.14-.163.308-.287.504-.371a1.56 1.56 0 01.65-.133c.243 0 .46.044.652.133.191.084.352.205.483.364.135.159.238.348.308.567.07.22.105.462.105.728v.175h-2.71v.175c0 .387.106.7.316.938.21.233.504.35.882.35.266 0 .492-.06.679-.182.191-.121.338-.301.44-.539l.302.189c-.108.266-.283.48-.525.644-.243.159-.542.238-.896.238zm-.035-3.444c-.178 0-.339.033-.483.098a1.06 1.06 0 00-.364.259 1.23 1.23 0 00-.231.406 1.569 1.569 0 00-.084.525v.042h2.282v-.056c0-.392-.1-.702-.301-.931-.196-.229-.47-.343-.82-.343zM18 17.328h.84v-6.792H18v-.792h6.684v2.232h-1.392v-1.368h-2.508V13.5h1.584v-.72h.888v2.304h-.888v-.72h-1.584v2.964h1.14v.792H18v-.792zM25.311 17.328h.72v-4.284l-.72-.156v-.684l2.508-.516v1.188h.048c.112-.336.292-.616.54-.84.248-.232.572-.348.972-.348.392 0 .7.108.924.324.224.208.336.496.336.864 0 .32-.084.572-.252.756-.168.184-.404.276-.708.276-.288 0-.508-.076-.66-.228a.792.792 0 01-.228-.564c0-.096.02-.184.06-.264.04-.08.088-.132.144-.156l-.012-.06a.364.364 0 00-.108-.012.714.714 0 00-.372.108 1.32 1.32 0 00-.324.276 1.645 1.645 0 00-.24.372 1.037 1.037 0 00-.084.396v3.552h.96v.792h-3.504v-.792zM34.277 17.4c.736 0 1.104-.44 1.104-1.32v-2.208c0-.88-.368-1.32-1.104-1.32-.736 0-1.104.44-1.104 1.32v2.208c0 .88.368 1.32 1.104 1.32zm0 .864c-.456 0-.872-.072-1.248-.216a2.828 2.828 0 01-.96-.648 2.877 2.877 0 01-.612-1.032 4.169 4.169 0 01-.216-1.392c0-.52.072-.984.216-1.392.144-.408.348-.752.612-1.032.272-.28.592-.492.96-.636a3.301 3.301 0 011.248-.228c.456 0 .868.076 1.236.228.376.144.696.356.96.636.272.28.48.624.624 1.032.144.408.216.872.216 1.392 0 .52-.072.984-.216 1.392a2.79 2.79 0 01-.624 1.032c-.264.28-.584.496-.96.648-.368.144-.78.216-1.236.216zM38.214 17.328h.72v-4.284l-.72-.156v-.684l2.508-.516v1.188h.06a1.83 1.83 0 01.6-.828c.288-.24.684-.36 1.188-.36.768 0 1.308.196 1.62.588.32.384.48.964.48 1.74v3.312h.72v.792h-3.204v-.792h.66v-3.252c0-.424-.076-.724-.228-.9-.144-.184-.392-.276-.744-.276-.136 0-.272.02-.408.06a.933.933 0 00-.36.168.837.837 0 00-.348.708v3.492h.66v.792h-3.204v-.792zM48.199 18.24c-.48 0-.836-.104-1.068-.312-.224-.216-.336-.532-.336-.948v-4.308h-.84v-.84h.324c.264 0 .456-.056.576-.168.128-.12.248-.296.36-.528l.504-1.044h.9v1.74h1.38v.84h-1.38v4.632h1.38v.708c-.128.056-.356.108-.684.156-.328.048-.7.072-1.116.072zM53.72 18.264c-.496 0-.936-.08-1.32-.24a2.876 2.876 0 01-.96-.684 3.104 3.104 0 01-.588-1.044 4.189 4.189 0 01-.204-1.332c0-.504.068-.96.204-1.368.144-.408.344-.752.6-1.032.264-.28.576-.496.936-.648a3.177 3.177 0 011.224-.228c.448 0 .852.068 1.212.204.36.136.664.332.912.588.256.248.452.552.588.912.136.36.204.76.204 1.2V15H52.58v.48c0 .536.14.94.42 1.212.28.272.652.408 1.116.408.432 0 .78-.096 1.044-.288.264-.2.452-.44.564-.72l.66.396c-.072.2-.176.404-.312.612-.136.208-.312.4-.528.576a2.886 2.886 0 01-.78.42 3.009 3.009 0 01-1.044.168zm-1.14-4.02h2.064v-.168c0-.576-.092-.98-.276-1.212-.184-.232-.436-.348-.756-.348s-.572.116-.756.348c-.184.232-.276.636-.276 1.212v.168zM57.432 17.328h.72v-4.284l-.72-.156v-.684l2.508-.516v1.188H60a1.83 1.83 0 01.6-.828c.288-.24.684-.36 1.188-.36.769 0 1.309.196 1.62.588.32.384.48.964.48 1.74v3.312h.72v.792h-3.204v-.792h.66v-3.252c0-.424-.075-.724-.227-.9-.145-.184-.393-.276-.745-.276-.136 0-.271.02-.407.06a.933.933 0 00-.36.168.837.837 0 00-.348.708v3.492h.66v.792h-3.205v-.792zM67.934 18.264c-.384 0-.732-.076-1.044-.228a2.317 2.317 0 01-.78-.672 3.268 3.268 0 01-.504-1.032 5.117 5.117 0 01-.168-1.356c0-.496.056-.944.168-1.344.12-.408.288-.756.504-1.044.216-.288.476-.508.78-.66.312-.16.66-.24 1.044-.24.224 0 .424.032.6.096.184.056.344.132.48.228.144.096.264.208.36.336.096.128.172.26.228.396h.06v-2.388l-.72-.156v-.684L71.486 9v7.908l.72.156v.684l-2.544.516v-1.08h-.06c-.112.28-.312.532-.6.756-.28.216-.636.324-1.068.324zm.612-1.104c.32 0 .584-.1.792-.3.216-.2.324-.468.324-.804v-2.172c0-.336-.108-.604-.324-.804-.208-.2-.472-.3-.792-.3a1.12 1.12 0 00-.84.348c-.224.232-.336.572-.336 1.02v1.644c0 .448.112.788.336 1.02.224.232.504.348.84.348zM75.473 17.328h.6l2.604-7.584h1.656l2.604 7.584h.6v.792H80.02v-.792h.96l-.576-1.764h-2.736l-.576 1.764h.96v.792h-2.58v-.792zm2.436-2.592h2.28l-1.128-3.528h-.048l-1.104 3.528zM83.902 19.728h.72v-6.684l-.72-.156v-.684l2.544-.516v1.08h.072c.112-.28.308-.528.588-.744.28-.224.636-.336 1.068-.336.384 0 .728.08 1.032.24.312.152.576.372.792.66.216.288.38.636.492 1.044.12.4.18.848.18 1.344 0 .496-.06.948-.18 1.356a3.09 3.09 0 01-.492 1.032c-.216.288-.48.512-.792.672a2.276 2.276 0 01-1.032.228c-.456 0-.82-.104-1.092-.312a1.81 1.81 0 01-.576-.744h-.06v2.52h.96v.792h-3.504v-.792zm3.66-2.568c.336 0 .616-.116.84-.348.224-.232.336-.572.336-1.02v-1.644c0-.448-.112-.788-.336-1.02a1.12 1.12 0 00-.84-.348c-.32 0-.588.1-.804.3-.208.2-.312.468-.312.804v2.172c0 .336.104.604.312.804.216.2.484.3.804.3zM91.496 19.728h.72v-6.684l-.72-.156v-.684l2.544-.516v1.08h.072c.112-.28.308-.528.588-.744.28-.224.636-.336 1.068-.336.384 0 .728.08 1.032.24.312.152.576.372.792.66.216.288.38.636.492 1.044.12.4.18.848.18 1.344 0 .496-.06.948-.18 1.356a3.09 3.09 0 01-.492 1.032c-.216.288-.48.512-.792.672a2.276 2.276 0 01-1.032.228c-.456 0-.82-.104-1.092-.312a1.81 1.81 0 01-.576-.744h-.06v2.52H95v.792h-3.504v-.792zm3.66-2.568c.336 0 .616-.116.84-.348.224-.232.336-.572.336-1.02v-1.644c0-.448-.112-.788-.336-1.02a1.12 1.12 0 00-.84-.348c-.32 0-.588.1-.804.3-.208.2-.312.468-.312.804v2.172c0 .336.104.604.312.804.216.2.484.3.804.3z"/>
    <rect width="116" height="40" x="144" fill="#F4CBC6" rx="4"/>
    <path fill="#000" d="M165 18.328h.84v-6.792H165v-.792h4.332c.488 0 .908.052 1.26.156.352.096.64.232.864.408.232.176.4.384.504.624.112.24.168.5.168.78 0 .288-.052.544-.156.768a1.721 1.721 0 01-.396.576c-.168.152-.364.28-.588.384-.216.104-.44.18-.672.228v.06c.24.032.488.096.744.192s.488.228.696.396c.208.168.376.376.504.624a1.7 1.7 0 01.204.852c0 .744-.24 1.32-.72 1.728-.48.4-1.204.6-2.172.6H165v-.792zm2.784-.06h1.332c.432 0 .764-.108.996-.324.24-.216.36-.52.36-.912v-.564c0-.392-.12-.696-.36-.912-.232-.216-.564-.324-.996-.324h-1.332v3.036zm0-3.864h1.116c.824 0 1.236-.38 1.236-1.14v-.528c0-.76-.412-1.14-1.236-1.14h-1.116v2.808zM175.297 19.264c-.68 0-1.176-.156-1.488-.468-.304-.32-.456-.764-.456-1.332 0-1.24.916-1.86 2.748-1.86h.84v-.684c0-.488-.092-.856-.276-1.104-.184-.248-.504-.372-.96-.372-.168 0-.312.012-.432.036-.12.024-.224.056-.312.096v.06c.08.04.156.112.228.216.08.104.12.244.12.42a.88.88 0 01-.228.612c-.152.16-.38.24-.684.24a.794.794 0 01-.6-.252.885.885 0 01-.24-.636c0-.192.056-.38.168-.564.112-.192.28-.36.504-.504.224-.144.5-.26.828-.348.336-.088.72-.132 1.152-.132.872 0 1.516.188 1.932.564.416.368.624.892.624 1.572v3.504h.72v.684a1.63 1.63 0 01-.528.18c-.216.048-.44.072-.672.072-.44 0-.752-.1-.936-.3a1.148 1.148 0 01-.264-.768v-.024h-.072a2.13 2.13 0 01-.216.396c-.08.128-.188.244-.324.348a1.511 1.511 0 01-.48.252 2.215 2.215 0 01-.696.096zm.684-1.08c.296 0 .528-.068.696-.204.176-.136.264-.372.264-.708v-.948h-.648c-.384 0-.672.08-.864.24-.184.16-.276.388-.276.684v.192c0 .256.076.444.228.564.152.12.352.18.6.18zM183.341 19.264c-.504 0-.948-.084-1.332-.252a2.799 2.799 0 01-.96-.696 3.104 3.104 0 01-.588-1.044 4.271 4.271 0 01-.192-1.308c0-.528.084-.992.252-1.392.168-.408.396-.752.684-1.032a2.98 2.98 0 011.032-.636c.4-.144.828-.216 1.284-.216.736 0 1.3.152 1.692.456.4.304.6.688.6 1.152 0 .304-.084.548-.252.732-.168.176-.4.264-.696.264-.296 0-.524-.076-.684-.228a.844.844 0 01-.24-.624c0-.208.052-.38.156-.516.112-.136.236-.236.372-.3v-.072a3.763 3.763 0 00-.288-.072 2.019 2.019 0 00-.432-.036c-.488 0-.868.156-1.14.468-.272.304-.408.744-.408 1.32v1.248c0 .528.124.932.372 1.212.248.272.592.408 1.032.408.448 0 .804-.104 1.068-.312.264-.208.452-.452.564-.732l.672.396c-.072.2-.176.408-.312.624a2.32 2.32 0 01-.504.588c-.208.176-.456.32-.744.432a2.772 2.772 0 01-1.008.168zM186.559 18.328h.72v-6.972l-.72-.156v-.684l2.544-.516v5.952h.072l.708-.84 1.428-1.488h-.72v-.792h2.724v.792h-.852l-1.38 1.356 2.028 3.348h.54v.792h-3.156v-.792h.54l-1.164-2.232-.768.804v1.428h.66v.792h-3.204v-.792zM197.028 19.264c-.496 0-.936-.08-1.32-.24a2.876 2.876 0 01-.96-.684 3.104 3.104 0 01-.588-1.044 4.189 4.189 0 01-.204-1.332c0-.504.068-.96.204-1.368.144-.408.344-.752.6-1.032.264-.28.576-.496.936-.648a3.177 3.177 0 011.224-.228c.448 0 .852.068 1.212.204.36.136.664.332.912.588.256.248.452.552.588.912.136.36.204.76.204 1.2V16h-3.948v.48c0 .536.14.94.42 1.212.28.272.652.408 1.116.408.432 0 .78-.096 1.044-.288.264-.2.452-.44.564-.72l.66.396c-.072.2-.176.404-.312.612-.136.208-.312.4-.528.576a2.886 2.886 0 01-.78.42 3.009 3.009 0 01-1.044.168zm-1.14-4.02h2.064v-.168c0-.576-.092-.98-.276-1.212-.184-.232-.436-.348-.756-.348s-.572.116-.756.348c-.184.232-.276.636-.276 1.212v.168zM200.741 18.328h.72v-4.284l-.72-.156v-.684l2.508-.516v1.188h.06a1.83 1.83 0 01.6-.828c.288-.24.684-.36 1.188-.36.768 0 1.308.196 1.62.588.32.384.48.964.48 1.74v3.312h.72v.792h-3.204v-.792h.66v-3.252c0-.424-.076-.724-.228-.9-.144-.184-.392-.276-.744-.276-.136 0-.272.02-.408.06a.933.933 0 00-.36.168.837.837 0 00-.348.708v3.492h.66v.792h-3.204v-.792zM211.242 19.264c-.384 0-.732-.076-1.044-.228a2.317 2.317 0 01-.78-.672 3.268 3.268 0 01-.504-1.032 5.117 5.117 0 01-.168-1.356c0-.496.056-.944.168-1.344.12-.408.288-.756.504-1.044.216-.288.476-.508.78-.66.312-.16.66-.24 1.044-.24.224 0 .424.032.6.096.184.056.344.132.48.228.144.096.264.208.36.336.096.128.172.26.228.396h.06v-2.388l-.72-.156v-.684l2.544-.516v7.908l.72.156v.684l-2.544.516v-1.08h-.06c-.112.28-.312.532-.6.756-.28.216-.636.324-1.068.324zm.612-1.104c.32 0 .584-.1.792-.3.216-.2.324-.468.324-.804v-2.172c0-.336-.108-.604-.324-.804-.208-.2-.472-.3-.792-.3a1.12 1.12 0 00-.84.348c-.224.232-.336.572-.336 1.02v1.644c0 .448.112.788.336 1.02.224.232.504.348.84.348zM218.781 18.328h.6l2.604-7.584h1.656l2.604 7.584h.6v.792h-3.516v-.792h.96l-.576-1.764h-2.736l-.576 1.764h.96v.792h-2.58v-.792zm2.436-2.592h2.28l-1.128-3.528h-.048l-1.104 3.528zM227.496 18.328h.84v-6.792h-.84v-.792h4.62c.88 0 1.536.196 1.968.588.44.384.66.952.66 1.704 0 .76-.236 1.356-.708 1.788-.472.424-1.148.636-2.028.636h-1.728v2.868h1.14v.792h-3.924v-.792zm2.784-3.732h1.188c.408 0 .724-.096.948-.288.232-.2.348-.5.348-.9v-.612c0-.4-.116-.696-.348-.888-.224-.2-.54-.3-.948-.3h-1.188v2.988zM235.664 18.328h.84v-6.792h-.84v-.792h3.624v.792h-.84v6.792h.84v.792h-3.624v-.792zM173.24 31.084c-.504 0-.894-.166-1.169-.497-.275-.331-.413-.796-.413-1.393s.138-1.062.413-1.393c.28-.331.667-.497 1.162-.497.336 0 .611.077.826.231.215.15.369.343.462.581l-.322.161a.92.92 0 00-.357-.462 1.085 1.085 0 00-.609-.161c-.369 0-.653.119-.854.357-.196.233-.294.544-.294.931v.504c0 .387.098.7.294.938.201.233.488.35.861.35.257 0 .471-.058.644-.175.173-.117.306-.28.399-.49l.294.189a1.424 1.424 0 01-.483.595c-.219.154-.504.231-.854.231zM175.631 31v-3.612h.371v.42h.021a.962.962 0 01.245-.357c.112-.098.269-.147.469-.147.206 0 .364.051.476.154a.665.665 0 01.21.413h.014c.066-.163.159-.299.28-.406.122-.107.29-.161.504-.161.28 0 .474.093.581.28.112.182.168.448.168.798V31h-.371v-2.555c0-.294-.042-.502-.126-.623-.079-.121-.207-.182-.385-.182a.581.581 0 00-.427.175c-.116.112-.175.285-.175.518V31h-.371v-2.555c0-.294-.042-.502-.126-.623-.079-.121-.207-.182-.385-.182a.581.581 0 00-.427.175c-.116.112-.175.285-.175.518V31h-.371zM182.748 31c-.164 0-.28-.04-.35-.119a.525.525 0 01-.119-.322v-.126h-.035c-.08.191-.21.348-.392.469-.182.121-.43.182-.742.182-.378 0-.677-.091-.896-.273-.215-.187-.322-.448-.322-.784 0-.159.025-.301.077-.427a.805.805 0 01.259-.329c.121-.089.275-.156.462-.203a2.62 2.62 0 01.686-.077h.882v-.441c0-.303-.084-.53-.252-.679-.164-.15-.392-.224-.686-.224-.495 0-.84.198-1.036.595l-.273-.196c.093-.21.249-.385.469-.525.224-.145.511-.217.861-.217.41 0 .732.107.966.322.233.21.35.504.35.882v2.142h.539V31h-.448zm-1.575-.252c.154 0 .296-.019.427-.056.13-.037.245-.089.343-.154a.79.79 0 00.231-.252.651.651 0 00.084-.329v-.665h-.882c-.378 0-.651.058-.819.175a.53.53 0 00-.245.462v.182c0 .21.077.369.231.476.158.107.368.161.63.161zM185.916 26.422c-.126 0-.217-.026-.273-.077a.287.287 0 01-.077-.203v-.091c0-.08.025-.145.077-.196.056-.056.147-.084.273-.084.126 0 .214.028.266.084a.254.254 0 01.084.196v.091c0 .08-.028.147-.084.203-.052.051-.14.077-.266.077zm-1.554 4.235h1.358v-2.926h-1.358v-.343h1.757v3.269h1.267V31h-3.024v-.343zM188.335 30.657h1.134v-2.926h-1.134v-.343h1.533v.826h.028c.079-.252.215-.453.406-.602.196-.15.453-.224.77-.224h.623v.392h-.742c-.327 0-.59.098-.791.294-.196.191-.294.45-.294.777v1.806h1.47V31h-3.003v-.343zM194.086 31.049c-.149 0-.254-.03-.315-.091a.325.325 0 01-.091-.238v-.098c0-.093.031-.17.091-.231.061-.065.166-.098.315-.098.15 0 .255.033.315.098.061.06.091.138.091.231v.098a.32.32 0 01-.091.238c-.06.06-.165.091-.315.091zM198.361 31.084c-.364 0-.682-.06-.952-.182a2.115 2.115 0 01-.693-.525l.273-.238c.177.205.375.36.595.462.219.098.48.147.784.147.317 0 .574-.06.77-.182.2-.121.301-.308.301-.56a.525.525 0 00-.224-.455.78.78 0 00-.245-.105 1.903 1.903 0 00-.308-.063l-.56-.077a4.804 4.804 0 01-.427-.077 1.48 1.48 0 01-.385-.161.884.884 0 01-.28-.28.86.86 0 01-.105-.448.884.884 0 01.399-.784 1.4 1.4 0 01.441-.189 2.33 2.33 0 01.553-.063c.336 0 .618.056.847.168.233.107.429.243.588.406l-.266.252a1.675 1.675 0 00-.182-.168.982.982 0 00-.245-.161 1.438 1.438 0 00-.329-.112 1.737 1.737 0 00-.434-.049c-.308 0-.549.056-.721.168-.168.112-.252.28-.252.504 0 .112.018.205.056.28.042.07.098.128.168.175a.9.9 0 00.245.112c.093.023.193.042.301.056l.567.084c.14.023.28.054.42.091.144.033.273.084.385.154a.81.81 0 01.28.28c.07.112.105.259.105.441a.977.977 0 01-.413.819c-.126.093-.28.163-.462.21-.182.047-.381.07-.595.07zM201.13 27.388h.399v.574h.021c.103-.196.245-.355.427-.476.187-.121.418-.182.693-.182.453 0 .805.163 1.057.49.252.322.378.789.378 1.4 0 .611-.126 1.08-.378 1.407-.252.322-.604.483-1.057.483-.275 0-.506-.06-.693-.182a1.274 1.274 0 01-.427-.476h-.021V32.4h-.399v-5.012zm1.407 3.339c.364 0 .644-.114.84-.343.201-.229.301-.541.301-.938v-.504c0-.397-.1-.71-.301-.938-.196-.229-.476-.343-.84-.343-.135 0-.264.019-.385.056a1.042 1.042 0 00-.322.161.8.8 0 00-.224.259.76.76 0 00-.077.343v1.428c0 .126.026.24.077.343a.8.8 0 00.224.259c.093.07.201.124.322.161.121.037.25.056.385.056zM207.931 31c-.163 0-.28-.04-.35-.119a.525.525 0 01-.119-.322v-.126h-.035c-.079.191-.21.348-.392.469-.182.121-.429.182-.742.182-.378 0-.677-.091-.896-.273-.215-.187-.322-.448-.322-.784 0-.159.026-.301.077-.427a.805.805 0 01.259-.329c.121-.089.275-.156.462-.203.187-.051.415-.077.686-.077h.882v-.441c0-.303-.084-.53-.252-.679-.163-.15-.392-.224-.686-.224-.495 0-.84.198-1.036.595l-.273-.196a1.2 1.2 0 01.469-.525c.224-.145.511-.217.861-.217.411 0 .733.107.966.322.233.21.35.504.35.882v2.142h.539V31h-.448zm-1.575-.252c.154 0 .296-.019.427-.056.131-.037.245-.089.343-.154a.79.79 0 00.231-.252.651.651 0 00.084-.329v-.665h-.882c-.378 0-.651.058-.819.175a.532.532 0 00-.245.462v.182c0 .21.077.369.231.476.159.107.369.161.63.161zM211.015 31.084c-.504 0-.893-.166-1.169-.497-.275-.331-.413-.796-.413-1.393s.138-1.062.413-1.393c.28-.331.668-.497 1.162-.497.336 0 .612.077.826.231.215.15.369.343.462.581l-.322.161a.91.91 0 00-.357-.462 1.085 1.085 0 00-.609-.161c-.368 0-.653.119-.854.357-.196.233-.294.544-.294.931v.504c0 .387.098.7.294.938.201.233.488.35.861.35.257 0 .472-.058.644-.175.173-.117.306-.28.399-.49l.294.189a1.409 1.409 0 01-.483.595c-.219.154-.504.231-.854.231zM215.129 31.084c-.504 0-.901-.163-1.19-.49-.285-.331-.427-.796-.427-1.393 0-.299.037-.565.112-.798.074-.238.179-.436.315-.595.14-.163.308-.287.504-.371a1.56 1.56 0 01.651-.133c.242 0 .459.044.651.133.191.084.352.205.483.364.135.159.238.348.308.567.07.22.105.462.105.728v.175h-2.709v.175c0 .387.105.7.315.938.21.233.504.35.882.35.266 0 .492-.06.679-.182.191-.121.338-.301.441-.539l.301.189c-.108.266-.283.48-.525.644-.243.159-.542.238-.896.238zm-.035-3.444c-.178 0-.339.033-.483.098-.14.06-.262.147-.364.259a1.23 1.23 0 00-.231.406 1.569 1.569 0 00-.084.525v.042h2.282v-.056c0-.392-.101-.702-.301-.931-.196-.229-.469-.343-.819-.343zM217.842 31.966l2.499-6.286h.357l-2.499 6.286h-.357zM224.72 31c-.163 0-.28-.04-.35-.119a.53.53 0 01-.119-.322v-.126h-.035c-.079.191-.21.348-.392.469-.182.121-.429.182-.742.182-.378 0-.676-.091-.896-.273-.214-.187-.322-.448-.322-.784 0-.159.026-.301.077-.427a.813.813 0 01.259-.329 1.33 1.33 0 01.462-.203 2.63 2.63 0 01.686-.077h.882v-.441c0-.303-.084-.53-.252-.679-.163-.15-.392-.224-.686-.224-.494 0-.84.198-1.036.595l-.273-.196c.094-.21.25-.385.469-.525.224-.145.511-.217.861-.217.411 0 .733.107.966.322.234.21.35.504.35.882v2.142h.539V31h-.448zm-1.575-.252c.154 0 .297-.019.427-.056.131-.037.245-.089.343-.154a.79.79 0 00.231-.252.651.651 0 00.084-.329v-.665h-.882c-.378 0-.651.058-.819.175a.532.532 0 00-.245.462v.182c0 .21.077.369.231.476.159.107.369.161.63.161zM226.313 27.388h.399v.574h.021c.103-.196.245-.355.427-.476.187-.121.418-.182.693-.182.453 0 .805.163 1.057.49.252.322.378.789.378 1.4 0 .611-.126 1.08-.378 1.407-.252.322-.604.483-1.057.483-.275 0-.506-.06-.693-.182a1.274 1.274 0 01-.427-.476h-.021V32.4h-.399v-5.012zm1.407 3.339c.364 0 .644-.114.84-.343.201-.229.301-.541.301-.938v-.504c0-.397-.1-.71-.301-.938-.196-.229-.476-.343-.84-.343-.135 0-.263.019-.385.056a1.053 1.053 0 00-.322.161.8.8 0 00-.224.259.76.76 0 00-.077.343v1.428c0 .126.026.24.077.343a.8.8 0 00.224.259c.094.07.201.124.322.161.122.037.25.056.385.056zM232.086 26.422c-.126 0-.217-.026-.273-.077a.287.287 0 01-.077-.203v-.091c0-.08.025-.145.077-.196.056-.056.147-.084.273-.084.126 0 .214.028.266.084a.254.254 0 01.084.196v.091c0 .08-.028.147-.084.203-.052.051-.14.077-.266.077zm-1.554 4.235h1.358v-2.926h-1.358v-.343h1.757v3.269h1.267V31h-3.024v-.343z"/>
    <rect width="116" height="40" x="288" fill="#F4AFAB" rx="4"/>
    <path fill="#000" d="M312.34 25.144c-.68 0-1.176-.156-1.488-.468-.304-.32-.456-.764-.456-1.332 0-1.24.916-1.86 2.748-1.86h.84V20.8c0-.488-.092-.856-.276-1.104-.184-.248-.504-.372-.96-.372-.168 0-.312.012-.432.036-.12.024-.224.056-.312.096v.06c.08.04.156.112.228.216.08.104.12.244.12.42a.88.88 0 01-.228.612c-.152.16-.38.24-.684.24a.794.794 0 01-.6-.252.885.885 0 01-.24-.636c0-.192.056-.38.168-.564.112-.192.28-.36.504-.504.224-.144.5-.26.828-.348.336-.088.72-.132 1.152-.132.872 0 1.516.188 1.932.564.416.368.624.892.624 1.572v3.504h.72v.684a1.63 1.63 0 01-.528.18c-.216.048-.44.072-.672.072-.44 0-.752-.1-.936-.3a1.148 1.148 0 01-.264-.768v-.024h-.072a2.13 2.13 0 01-.216.396c-.08.128-.188.244-.324.348a1.511 1.511 0 01-.48.252 2.215 2.215 0 01-.696.096zm.684-1.08c.296 0 .528-.068.696-.204.176-.136.264-.372.264-.708v-.948h-.648c-.384 0-.672.08-.864.24-.184.16-.276.388-.276.684v.192c0 .256.076.444.228.564.152.12.352.18.6.18zM320.623 26.608h.96v-2.52h-.06a1.81 1.81 0 01-.576.744c-.272.208-.636.312-1.092.312-.384 0-.732-.076-1.044-.228a2.317 2.317 0 01-.78-.672 3.268 3.268 0 01-.504-1.032 5.117 5.117 0 01-.168-1.356c0-.496.056-.944.168-1.344.12-.408.288-.756.504-1.044.216-.288.476-.508.78-.66.312-.16.66-.24 1.044-.24.472 0 .864.112 1.176.336.312.224.524.484.636.78h.072l.828-.972h.84v7.896h.72v.792h-3.504v-.792zm-.156-2.568c.32 0 .584-.1.792-.3.216-.2.324-.468.324-.804v-2.172c0-.336-.108-.604-.324-.804-.208-.2-.472-.3-.792-.3a1.12 1.12 0 00-.84.348c-.224.232-.336.572-.336 1.02v1.644c0 .448.112.788.336 1.02.224.232.504.348.84.348zM326.431 17.884c-.336 0-.6-.092-.792-.276-.184-.184-.276-.432-.276-.744v-.06c0-.312.092-.56.276-.744.192-.184.456-.276.792-.276s.596.092.78.276c.192.184.288.432.288.744v.06c0 .312-.096.56-.288.744-.184.184-.444.276-.78.276zm-1.62 6.324h.72v-4.284l-.72-.156v-.684l2.544-.516v5.64h.72V25h-3.264v-.792zM331.915 25.144c-.504 0-.948-.084-1.332-.252a2.799 2.799 0 01-.96-.696 3.104 3.104 0 01-.588-1.044 4.271 4.271 0 01-.192-1.308c0-.528.084-.992.252-1.392.168-.408.396-.752.684-1.032a2.98 2.98 0 011.032-.636c.4-.144.828-.216 1.284-.216.736 0 1.3.152 1.692.456.4.304.6.688.6 1.152 0 .304-.084.548-.252.732-.168.176-.4.264-.696.264-.296 0-.524-.076-.684-.228a.844.844 0 01-.24-.624c0-.208.052-.38.156-.516.112-.136.236-.236.372-.3v-.072a3.763 3.763 0 00-.288-.072 2.019 2.019 0 00-.432-.036c-.488 0-.868.156-1.14.468-.272.304-.408.744-.408 1.32v1.248c0 .528.124.932.372 1.212.248.272.592.408 1.032.408.448 0 .804-.104 1.068-.312.264-.208.452-.452.564-.732l.672.396c-.072.2-.176.408-.312.624a2.32 2.32 0 01-.504.588c-.208.176-.456.32-.744.432a2.772 2.772 0 01-1.008.168zM335.253 24.208h.72v-4.284l-.72-.156v-.684l2.508-.516v1.188h.06a1.83 1.83 0 01.6-.828c.288-.24.684-.36 1.188-.36.768 0 1.308.196 1.62.588.32.384.48.964.48 1.74v3.312h.72V25h-3.204v-.792h.66v-3.252c0-.424-.076-.724-.228-.9-.144-.184-.392-.276-.744-.276-.136 0-.272.02-.408.06a.933.933 0 00-.36.168.837.837 0 00-.348.708v3.492h.66V25h-3.204v-.792zM344.563 25.144c-.352 0-.62-.1-.804-.3a1.085 1.085 0 01-.276-.744v-.048c0-.288.092-.532.276-.732.184-.208.452-.312.804-.312.352 0 .62.104.804.312.184.2.276.444.276.732v.048c0 .288-.092.536-.276.744-.184.2-.452.3-.804.3zM349.574 24.28c.736 0 1.104-.44 1.104-1.32v-2.208c0-.88-.368-1.32-1.104-1.32-.736 0-1.104.44-1.104 1.32v2.208c0 .88.368 1.32 1.104 1.32zm0 .864c-.456 0-.872-.072-1.248-.216a2.828 2.828 0 01-.96-.648 2.877 2.877 0 01-.612-1.032 4.169 4.169 0 01-.216-1.392c0-.52.072-.984.216-1.392.144-.408.348-.752.612-1.032.272-.28.592-.492.96-.636a3.301 3.301 0 011.248-.228c.456 0 .868.076 1.236.228.376.144.696.356.96.636.272.28.48.624.624 1.032.144.408.216.872.216 1.392 0 .52-.072.984-.216 1.392a2.79 2.79 0 01-.624 1.032c-.264.28-.584.496-.96.648-.368.144-.78.216-1.236.216zM353.51 24.208h.72v-4.284l-.72-.156v-.684l2.508-.516v1.188h.048c.112-.336.292-.616.54-.84.248-.232.572-.348.972-.348.392 0 .7.108.924.324.224.208.336.496.336.864 0 .32-.084.572-.252.756-.168.184-.404.276-.708.276-.288 0-.508-.076-.66-.228a.792.792 0 01-.228-.564c0-.096.02-.184.06-.264.04-.08.088-.132.144-.156l-.012-.06a.364.364 0 00-.108-.012.714.714 0 00-.372.108 1.32 1.32 0 00-.324.276 1.645 1.645 0 00-.24.372 1.037 1.037 0 00-.084.396v3.552h.96V25h-3.504v-.792zM362.262 27.544a9.411 9.411 0 01-1.476-.096c-.392-.064-.708-.156-.948-.276-.232-.12-.396-.264-.492-.432a1.14 1.14 0 01-.144-.576.89.89 0 01.384-.744c.264-.184.588-.308.972-.372V25a1.258 1.258 0 01-.684-.396c-.168-.208-.252-.472-.252-.792 0-.368.12-.652.36-.852.248-.208.544-.352.888-.432v-.048c-.408-.16-.724-.392-.948-.696-.216-.304-.324-.684-.324-1.14 0-.336.064-.632.192-.888s.308-.472.54-.648c.232-.176.512-.308.84-.396a3.88 3.88 0 011.092-.144c.288 0 .556.024.804.072.256.048.5.128.732.24.088-.88.484-1.32 1.188-1.32.232 0 .424.068.576.204.16.128.24.316.24.564 0 .232-.072.42-.216.564-.136.136-.332.204-.588.204-.296 0-.528-.1-.696-.3h-.048v.36c.216.176.384.384.504.624.128.24.192.528.192.864 0 .336-.064.632-.192.888a1.787 1.787 0 01-.552.648 2.57 2.57 0 01-.84.408 4.212 4.212 0 01-1.092.132 4.59 4.59 0 01-.48-.024c-.152-.016-.3-.04-.444-.072-.224.144-.336.328-.336.552 0 .168.064.296.192.384.128.08.332.12.612.12h1.392c.432 0 .8.044 1.104.132.312.08.564.196.756.348.192.152.332.336.42.552.088.208.132.444.132.708 0 .664-.276 1.184-.828 1.56-.552.376-1.396.564-2.532.564zm.012-5.652c.6 0 .9-.368.9-1.104V20.5c0-.736-.3-1.104-.9-1.104-.6 0-.9.368-.9 1.104v.288c0 .736.3 1.104.9 1.104zm-1.596 4.116c0 .256.1.444.3.564.208.128.54.192.996.192h.768c.92 0 1.38-.272 1.38-.816 0-.264-.092-.44-.276-.528-.176-.088-.436-.132-.78-.132h-2.04c-.112.088-.2.184-.264.288a.966.966 0 00-.084.432zM368.844 24.208h.6l2.604-7.584h1.656l2.604 7.584h.6V25h-3.516v-.792h.96l-.576-1.764h-2.736l-.576 1.764h.96V25h-2.58v-.792zm2.436-2.592h2.28l-1.128-3.528h-.048l-1.104 3.528zM377.558 24.208h.84v-6.792h-.84v-.792h4.62c.88 0 1.536.196 1.968.588.44.384.66.952.66 1.704 0 .76-.236 1.356-.708 1.788-.472.424-1.148.636-2.028.636h-1.728v2.868h1.14V25h-3.924v-.792zm2.784-3.732h1.188c.408 0 .724-.096.948-.288.232-.2.348-.5.348-.9v-.612c0-.4-.116-.696-.348-.888-.224-.2-.54-.3-.948-.3h-1.188v2.988zM385.726 24.208h.84v-6.792h-.84v-.792h3.624v.792h-.84v6.792h.84V25h-3.624v-.792z"/>
    <path fill="#F07B0E" d="M144.354 9.354a.5.5 0 000-.708l-3.182-3.182a.501.501 0 00-.708.708L143.293 9l-2.829 2.828a.5.5 0 00.708.708l3.182-3.182zM115 9.5h29v-1h-29v1zM289.354 9.354a.5.5 0 000-.708l-3.182-3.182a.501.501 0 00-.708.708L288.293 9l-2.829 2.828a.5.5 0 00.708.708l3.182-3.182zM260 9.5h29v-1h-29v1zM114.646 27.646a.5.5 0 000 .708l3.182 3.181a.501.501 0 00.708-.707L115.707 28l2.829-2.828a.5.5 0 00-.708-.707l-3.182 3.181zM144 27.5h-29v1h29v-1zM258.646 27.646a.5.5 0 000 .708l3.182 3.181a.501.501 0 00.708-.707L259.707 28l2.829-2.828a.5.5 0 00-.708-.707l-3.182 3.181zM288 27.5h-29v1h29v-1z"/>
    <path fill="#000" d="M432.354 9.354a.5.5 0 000-.708l-3.182-3.182a.501.501 0 00-.708.708L431.293 9l-2.829 2.828a.5.5 0 00.708.708l3.182-3.182zM403 9.5h29v-1h-29v1z"/>
  </g>
  <defs>
    <clipPath id="clip0">
      <path fill="#fff" d="M0 0h404v40H0z"/>
    </clipPath>
  </defs>
</svg>
