<svg xmlns="http://www.w3.org/2000/svg" xml:space="preserve" width="960.1" height="134.2" viewBox="-0.1 212.9 960.1 134.2"><path d="M126.1 345.8H86.4c-5.5-4.2-18.6-17.8-32.6-34.7l-38.9-47.4c-23.3-27.9-18.6-50.8 8.9-50.8 33.4 0 64.3 19.5 91 49.1h-34c-16.5-15.2-31.7-22.4-37.2-23.3-10.6-1.3-12.3 4.7-3 16.1l43.6 52.9c11.9 13.6 28.4 29.7 41.9 38.1zm-3.3-32.6c11 13.1 15.7 23.3 18.2 33.9h27c-1.3-10.2-5.9-22.4-15.2-33.9h-30zm428.3-97.3H524l32.6 65.2h-.8L469 215.9h-38.5l135.9 100.3 26.2 30.9h32.6l-30.5-36.4-43.6-94.8zm-196.4 0 106.7 124.9h-.8L305.2 215.9h-31.3l109.2 130.4h31.3l-63.9-71.1h.8l88.5 72h54.6L383.9 215.9h-29.2zM960 347.1 849.9 215.9h-29.2L927 340.7h-.8L770.8 215.9h-31.3l109.6 130.4H880l-61.6-69.9 87.4 70.8H960zM153.2 215.9l67.3 130.4h27.9L197.2 251h.8l98.6 96.1h35.1L194.3 215.9h-41.1zm577 53.3c-27.5-33.9-61-56.3-96.9-56.3-27.5 0-31.7 22.9-8.9 50.8l39.4 47c14 17.4 26.7 30.5 32.6 35.1h39.8c-13.5-8.5-30.1-24.1-41.9-38.1l-44-52.9c-9.3-11.4-8-17.4 3-16.1 7.2.8 30.9 13.1 52.9 39.8l28.4 34.7c11 13.1 15.7 22.9 18.2 33.9h25.8c-3-16.1-8.9-30.1-27.9-53.3l-20.5-24.6z"/></svg>
