<?xml version="1.0" encoding="utf-8"?>
<!-- Generator: Adobe Illustrator 18.0.0, SVG Export Plug-In . SVG Version: 6.00 Build 0)  -->
<!DOCTYPE svg PUBLIC "-//W3C//DTD SVG 1.1//EN" "http://www.w3.org/Graphics/SVG/1.1/DTD/svg11.dtd">
<svg version="1.1" id="Cuadro" xmlns="http://www.w3.org/2000/svg" xmlns:xlink="http://www.w3.org/1999/xlink" x="0px" y="0px"
	 width="960.1px" height="134.2px" viewBox="-0.1 212.9 960.1 134.2" enable-background="new -0.1 212.9 960.1 134.2"
	 xml:space="preserve">
<path d="M126.1,345.8H86.8h-0.4c-5.5-4.2-18.6-17.8-32.6-34.7l-38.9-47.4c-23.3-27.9-18.6-50.8,8.9-50.8c33.4,0,64.3,19.5,91,49.1
	H80.8c-16.5-15.2-31.7-22.4-37.2-23.3c-10.6-1.3-12.3,4.7-3,16.1l43.6,52.9C96.1,321.3,112.6,337.4,126.1,345.8z M122.8,313.2
	c11,13.1,15.7,23.3,18.2,33.9H168c-1.3-10.2-5.9-22.4-15.2-33.9H122.8z M551.1,215.9H524l32.6,65.2h-0.8L469,215.9h-38.5
	l135.9,100.3l26.2,30.9h32.6l-30.5-36.4L551.1,215.9z M354.7,215.9l106.7,124.9h-0.8L305.2,215.9h-31.3l109.2,130.4h31.3l-63.9-71.1
	h0.8l88.5,72h54.6L383.9,215.9H354.7z M960,347.1L849.9,215.9h-29.2L927,340.7h-0.8L770.8,215.9h-31.3l109.6,130.4H880l-61.6-69.9
	l87.4,70.8H960z M153.2,215.9l67.3,130.4h27.9L197.2,251h0.8l98.6,96.1h35.1L194.3,215.9H153.2z M730.2,269.2
	c-27.5-33.9-61-56.3-96.9-56.3c-27.5,0-31.7,22.9-8.9,50.8l39.4,47c14,17.4,26.7,30.5,32.6,35.1c0,0,0,0,0.4,0h39.4
	c-13.5-8.5-30.1-24.1-41.9-38.1l-44-52.9c-9.3-11.4-8-17.4,3-16.1c7.2,0.8,30.9,13.1,52.9,39.8l28.4,34.7
	c11,13.1,15.7,22.9,18.2,33.9h25.8c-3-16.1-8.9-30.1-27.9-53.3L730.2,269.2z"/>
</svg>
